<svg id="Vrstva_1" data-name="Vrstva 1" xmlns="http://www.w3.org/2000/svg" viewBox="0 0 642.89 370"><title>CeskaTelevize</title><path d="M96.14-19.72c24.76-2,51.56-2.93,73.3-3.28V9.21c-10.31.37-21.82,1.06-32.61,2.21-38,4.06-45.07,12.29-49.67,48.78a361.9,361.9,0,0,0,0,84.59c4.6,36.47,11.69,44.71,49.67,48.77,10.79,1.16,22.3,1.85,32.61,2.22V228c-21.74-.35-48.54-1.32-73.3-3.3C28,219.26,15.3,208.19,7,159.27A363.6,363.6,0,0,1,7,45.72c8.26-48.92,21-60,89.1-65.44" transform="translate(135.5 23)" style="fill:#002d62"/><path d="M373.6,102.49a360.24,360.24,0,0,1-4.45,56.78c-8.26,48.91-21,60-89.11,65.44-24.75,2-51.55,2.94-73.28,3.29V195.78c10.3-.37,21.8-1.06,32.59-2.22,38-4.06,45.08-12.3,49.67-48.78a357.93,357.93,0,0,0,2.48-42.26A359,359,0,0,0,289,60.2c-4.59-36.49-11.68-44.73-49.67-48.78-10.79-1.15-22.29-1.85-32.59-2.21V-23c21.73.35,48.53,1.31,73.28,3.28,68.14,5.46,80.85,16.52,89.11,65.44a360.21,360.21,0,0,1,4.45,56.77" transform="translate(135.5 23)" style="fill:#ef3e42"/><path d="M399.45,297.34H384.51v48.29h14.94ZM-95.59,281l9.75-13.58h-14.22l-4.19,6.83-4.19-6.83h-14.31L-113,281Zm-23.79,34.44c0-11.39,6.57-18.68,18.32-18.68,5.83,0,10.21,1.27,14.67,2.1L-85.11,287a53,53,0,0,0-18-3.1c-21.33,0-32.44,14.12-32.44,31.62,0,18.23,11.11,31.44,32.44,31.44a50.91,50.91,0,0,0,18-3.19l-1.28-11.76c-4.46.82-8.75,2-14.67,2-11.66,0-18.32-6.38-18.32-18.59m72.44.37H-65.81c1.56-5.11,5.2-8.94,10.48-8.94,4.93,0,8.39,2.74,8.39,8.94m14.31,10.84C-29.26,312-36.19,296-55.23,296c-17,0-26,11.3-26,25.51,0,17.86,12.39,25.52,27.06,25.52a60.38,60.38,0,0,0,19.77-3.55l-1.18-10.66a71.76,71.76,0,0,1-15.86,2.27c-7.47,0-12.76-2.46-14.58-8.38Zm22.23-15.86c0-2.46,1.46-3.82,7-3.82a65.14,65.14,0,0,1,17.05,2.82l1.27-10.21a51.68,51.68,0,0,0-19-3.64c-11.21,0-21.14,3.82-21.14,15.31,0,19.86,27.61,14.21,27.61,21,0,2.64-2,3.73-7.19,3.73a65.81,65.81,0,0,1-18.78-2.82l-1.18,10.2C-19,345.82-11.22,347-4,347c11.4,0,21.24-4.47,21.24-15.22,0-19.95-27.61-14.21-27.61-21m36.47,34.81H41V280.2H26.07Zm33-26v-.36l17.23-22h-17l-17.13,23,17.94,25.33h18Zm48.64-26.43,12.4-14.67H103.32l-7.66,14.67Zm2.83,38.64a13,13,0,0,1-9,4.28c-3.65,0-6.56-1.73-6.56-5.09,0-4.93,5.1-7.66,15.58-5.2Zm.91,13.76h14v-32.8c0-12.49-10.31-16.86-21.69-16.86-7.48,0-15.4,1.82-21,4.83L84,311.37a50.23,50.23,0,0,1,17.41-3.28c5.55,0,9.11,1.82,9.11,6.29v1.82c-16.4-3.55-31,1.46-31,15.85,0,8.93,7,14.95,15.77,14.95a21.6,21.6,0,0,0,15.22-5.56Zm62.1-15.49V308.27h10.94V297.34H173.53V285.67H160.32l-1.73,11.67-7.29.91v10h7.29v23.42c0,16.13,14,17.23,26.79,13.12l-1.18-10.57c-7.66,1.28-10.67.18-10.67-4.1m50.38-14.3H205.05c1.54-5.11,5.19-8.94,10.48-8.94,4.92,0,8.38,2.74,8.38,8.94m14.3,10.84C241.58,312,234.66,296,215.62,296c-17,0-26,11.3-26,25.51,0,17.86,12.4,25.52,27.07,25.52a60.38,60.38,0,0,0,19.77-3.55l-1.18-10.66a71.84,71.84,0,0,1-15.86,2.27c-7.47,0-12.76-2.46-14.57-8.38Zm9.85,18.95H263V280.2H248.06Zm58.62-29.79H287.81c1.56-5.11,5.2-8.94,10.49-8.94,4.92,0,8.38,2.74,8.38,8.94M321,326.68C324.36,312,317.43,296,298.39,296c-16.95,0-26,11.3-26,25.51,0,17.86,12.39,25.52,27.06,25.52a60.38,60.38,0,0,0,19.77-3.55l-1.18-10.66a71.68,71.68,0,0,1-15.86,2.27c-7.47,0-12.76-2.46-14.58-8.38Zm39.7,18.95L379,297.34H363.33l-11.49,33.17h-.36L340,297.34H324l18.4,48.29Zm40.14-60.14c0-4.92-2.1-7.48-8.84-7.48s-8.84,2.56-8.84,7.48,2.1,7.38,8.84,7.38,8.84-2.55,8.84-7.38m8.81,60.14H453V334.7H428.76v-.37l23.33-26.06V297.34H410.54v10.93h22.51v.36l-23.42,26.16Zm82.63-29.79H473.39c1.55-5.11,5.2-8.94,10.49-8.94,4.92,0,8.38,2.74,8.38,8.94M484,296c-17,0-26,11.3-26,25.51,0,17.86,12.4,25.52,27.07,25.52a60.49,60.49,0,0,0,19.78-3.55l-1.19-10.66a71.68,71.68,0,0,1-15.86,2.27c-7.47,0-12.75-2.46-14.57-8.38h33.35C509.94,312,503,296,484,296" transform="translate(135.5 23)" style="fill:#002d62"/></svg>