<?xml version="1.0" encoding="UTF-8" standalone="no"?>
<!-- Created with Inkscape (http://www.inkscape.org/) -->
<svg xmlns:dc="http://purl.org/dc/elements/1.1/" xmlns:cc="http://creativecommons.org/ns#" xmlns:rdf="http://www.w3.org/1999/02/22-rdf-syntax-ns#" xmlns:svg="http://www.w3.org/2000/svg" xmlns="http://www.w3.org/2000/svg" xmlns:sodipodi="http://sodipodi.sourceforge.net/DTD/sodipodi-0.dtd" xmlns:inkscape="http://www.inkscape.org/namespaces/inkscape" width="400" height="120.71285" id="svg2" version="1.1" inkscape:version="0.48.2 r9819" sodipodi:docname="DR logo.svg">
  <defs id="defs4">
    <clipPath id="clipPath3065" clipPathUnits="userSpaceOnUse">
      <path id="path3067" d="m 463.471,28.441 65.183,0 0,19.557 -65.183,0 0,-19.557 z" inkscape:connector-curvature="0"/>
    </clipPath>
    <clipPath id="clipPath3049" clipPathUnits="userSpaceOnUse">
      <path id="path3051" d="m 91.7244,157.441 60.5196,0 0,-129.9996 -60.5196,0 0,129.9996 z" inkscape:connector-curvature="0"/>
    </clipPath>
    <clipPath id="clipPath3035" clipPathUnits="userSpaceOnUse">
      <path id="path3037" d="m 47.6929,113.441 60.5201,0 0,-85.9996 -60.5201,0 0,85.9996 z" inkscape:connector-curvature="0"/>
    </clipPath>
    <clipPath id="clipPath3021" clipPathUnits="userSpaceOnUse">
      <path id="path3023" d="m 135.756,135.441 60.52,0 0,-107.9996 -60.52,0 0,107.9996 z" inkscape:connector-curvature="0"/>
    </clipPath>
    <clipPath id="clipPath3013" clipPathUnits="userSpaceOnUse">
      <path id="path3015" d="m 0,0 841.89,0 0,595.276 L 0,595.276 0,0 z" inkscape:connector-curvature="0"/>
    </clipPath>
    <clipPath id="clipPath3001" clipPathUnits="userSpaceOnUse">
      <path id="path3003" d="m 0,0 187.276,0 0,595.275 L 0,595.275 0,0 z" inkscape:connector-curvature="0"/>
    </clipPath>
  </defs>
  <sodipodi:namedview id="base" pagecolor="#ffffff" bordercolor="#666666" borderopacity="1.0" inkscape:pageopacity="0.0" inkscape:pageshadow="2" inkscape:zoom="0.49497475" inkscape:cx="531.44318" inkscape:cy="-309.72968" inkscape:document-units="px" inkscape:current-layer="g2993" showgrid="false" fit-margin-left="0.5" fit-margin-top="0.5" fit-margin-bottom="0.5" fit-margin-right="0.5" inkscape:window-width="1920" inkscape:window-height="1028" inkscape:window-x="-8" inkscape:window-y="-8" inkscape:window-maximized="1"/>
  <metadata id="metadata7">
    <rdf:RDF>
      <cc:Work rdf:about="">
        <dc:format>image/svg+xml</dc:format>
        <dc:type rdf:resource="http://purl.org/dc/dcmitype/StillImage"/>
        <dc:title/>
      </cc:Work>
    </rdf:RDF>
  </metadata>
  <g inkscape:label="Layer 1" inkscape:groupmode="layer" id="layer1" transform="translate(-188.8769,-417.21616)">
    <g transform="matrix(1.25,0,0,-1.25,-1769.9629,1027.2662)" inkscape:label="Medieudviklingen" id="g2993">
      <g id="g3161" transform="matrix(4.8969823,0,0,4.8969823,-6108.4059,-1527.1086)">
        <path inkscape:connector-curvature="0" d="m 1567.471,391.86957 65.183,0 0,19.557 -65.183,0 0,-19.557 z" style="fill:#000000;fill-opacity:1;fill-rule:nonzero;stroke:none" id="path3059"/>
        <g transform="translate(1104,363.42857)" id="g3061">
          <g id="g3063" clip-path="url(#clipPath3065)">
            <g id="g3069" transform="translate(485.8731,35.2455)">
              <path inkscape:connector-curvature="0" d="m 0,0 -4.37,0 c -0.124,0 -0.148,0.049 -0.148,0.148 l 0,5.88 c 0,0.099 0.024,0.148 0.148,0.148 l 4.37,0 C 2.599,6.176 3.639,5.434 3.639,3.095 3.639,0.755 2.599,0 0,0 m 3.612,7.971 -13.949,0 c -0.124,0 -0.186,-0.074 -0.186,-0.185 l 0,-9.395 c 0,-0.112 0.062,-0.186 0.186,-0.186 l 13.949,0 c 4.098,0 6.165,1.362 6.165,4.914 0,3.528 -2.067,4.852 -6.165,4.852" style="fill:#ffffff;fill-opacity:1;fill-rule:nonzero;stroke:none" id="path3071"/>
            </g>
            <g id="g3073" transform="translate(508.8964,37.7583)">
              <path inkscape:connector-curvature="0" d="m 0,0 -4.877,0 c -0.112,0 -0.149,0.038 -0.149,0.148 l 0,3.367 c 0,0.112 0.037,0.149 0.149,0.149 L 0,3.664 C 1.634,3.664 2.327,3.218 2.327,1.869 2.327,0.507 1.634,0 0,0 m 8.762,-3.912 -4.035,2.847 c -0.1,0.075 -0.161,0.112 -0.161,0.162 0,0.048 0.037,0.074 0.124,0.074 2.042,0 3.627,0.952 3.627,3.057 0,2.091 -1.362,3.23 -3.875,3.23 l -15.287,0 c -0.124,0 -0.185,-0.073 -0.185,-0.185 l 0,-9.395 c 0,-0.111 0.061,-0.186 0.185,-0.186 l 5.625,0 c 0.124,0 0.186,0.075 0.186,0.186 l 0,2.228 c 0,0.112 0.037,0.148 0.149,0.148 l 3.237,0 c 0.161,0 0.223,-0.012 0.334,-0.099 l 2.81,-2.327 c 0.137,-0.111 0.235,-0.136 0.396,-0.136 l 6.994,0 c 0.099,0 0.148,0.038 0.148,0.112 0,0.099 -0.173,0.21 -0.272,0.284" style="fill:#ffffff;fill-opacity:1;fill-rule:nonzero;stroke:none" id="path3075"/>
            </g>
          </g>
        </g>
      </g>
    </g>
  </g>
</svg>