<?xml version="1.0" encoding="UTF-8"?>
<!-- Generator: Adobe Illustrator 14.0.0, SVG Export Plug-In . SVG Version: 6.00 Build 43363)  -->
<!DOCTYPE svg PUBLIC "-//W3C//DTD SVG 1.1//EN" "http://www.w3.org/Graphics/SVG/1.1/DTD/svg11.dtd">
<svg version="1.1" id="Page_1" xmlns="http://www.w3.org/2000/svg" xmlns:xlink="http://www.w3.org/1999/xlink" x="0px" y="0px" width="490px" height="180px" viewBox="0 0 490 180" enable-background="new 0 0 490 180" xml:space="preserve">
<path fill-rule="evenodd" clip-rule="evenodd" fill="#0056A7" d="M400.532,88.202L387.957,71.5h0.264  c17.602,0,31.863-14.185,31.871-31.754c-0.008-17.573-14.254-31.854-31.86-31.86H356.48c-12.557,0-26.727,6.379-32.873,24.396  l-17.109,51.312c-2.839,7.185-7.123,9.255-11.126,9.255h-5.378c-3.549,0-6.555-1.476-8.568-4.117v0.003L268.476,71.5h0.264  c17.605,0,31.864-14.185,31.871-31.754c-0.007-17.573-14.254-31.854-31.86-31.86h-31.749c-12.556,0-26.728,6.379-32.874,24.396  l-17.116,51.312c-2.84,7.185-7.125,9.255-11.127,9.255h-74.412c-5.953-0.007-10.779-4.678-10.789-10.621  c0-1.182,0.186-2.221,0.511-3.256l13.501-40.591c1.569-4.854,5.426-9.048,11.225-9.253h33.343  c5.964,0.004,10.609,4.667,10.621,10.618c-0.011,5.952-4.657,10.61-10.621,10.621h-26.549l-7.009,21.239h33.558  c17.609,0,31.856-14.291,31.859-31.86c-0.003-17.573-14.25-31.854-31.859-31.86h-31.861c-12.557,0-26.727,6.379-32.87,24.396  L71.168,72.437c-1.021,3.165-1.563,6.41-1.555,9.791c0.004,17.456,14.401,31.685,31.86,31.86c0.029,0,0.037,0,0.033,0h74.378  c11.631,0,25.125-6.352,31.291-24.365l17.12-51.342c1.566-4.854,5.422-9.048,11.225-9.253h33.23  c5.953,0.004,10.6,4.667,10.62,10.618c-0.021,5.952-4.667,10.61-10.62,10.621h-21.237c-3.996,0-7.738,2.347-9.531,5.916  c-1.789,3.571-1.394,7.819,0.999,11.013l25.521,33.972c0.025,0.037,0.055,0.073,0.081,0.103c5.773,7.698,15.016,12.726,25.41,12.718  h5.378c11.628,0,25.118-6.352,31.282-24.365l17.119-51.342c1.566-4.854,5.423-9.048,11.226-9.253h33.232  c5.952,0.004,10.599,4.667,10.621,10.618c-0.022,5.952-4.669,10.61-10.621,10.621h-21.239c-3.995,0-7.742,2.347-9.531,5.916  c-1.789,3.571-1.397,7.819,0.999,11.013c0,0,25.304,33.745,25.329,33.774c6.069,8.262,12.355,11.843,20.471,13.018l6.582-20.328  C406.964,93.028,402.943,91.272,400.532,88.202L400.532,88.202z"/>
<g>
	<polygon fill-rule="evenodd" clip-rule="evenodd" fill="#636466" points="26.099,167.136 5.863,167.136 5.962,134.584    25.594,134.584 24.735,137.661 9.294,137.661 9.294,148.766 23.929,148.766 23.929,151.843 9.294,151.843 9.294,163.949    26.654,163.949 26.099,167.136  "/>
	<path fill-rule="evenodd" clip-rule="evenodd" fill="#636466" d="M49.743,155.527H33.239v3.23c0,3.735,3.432,5.7,6.965,5.7   c2.674,0,5.451-0.907,7.823-2.419l1.564,2.873c-2.171,1.36-5.299,2.627-9.69,2.627c-5.804,0-10.042-2.627-10.042-7.819v-9.896   c0-4.943,4.946-8.021,10.345-8.021c4.643,0,9.539,2.269,9.539,8.324V155.527L49.743,155.527z M40.256,144.727   c-2.978,0-7.017,1.664-7.017,5.097v2.776h13.122v-3.179C46.361,145.938,42.122,144.727,40.256,144.727L40.256,144.727z"/>
	<path fill-rule="evenodd" clip-rule="evenodd" fill="#636466" d="M70.235,147.251c-1.163-1.412-4.139-2.675-6.31-2.675   c-6.913,0-7.973,5.854-1.313,7.621c3.029,0.805,6.056,1.566,8.279,3.531c2.825,2.575,2.571,7.672-1.212,9.995   c-1.716,1.058-3.836,1.764-7.067,1.764c-4.238,0-7.216-1.515-8.882-3.18l2.121-2.524c1.715,1.669,4.846,2.726,7.014,2.726   c1.567,0,2.675-0.149,3.786-0.607c1.313-0.552,2.372-1.511,2.674-2.772c0.203-0.955-0.099-1.914-0.656-2.825   c-1.261-1.917-4.896-2.473-7.266-3.23c-3.632-1.112-6.409-2.979-6.561-6.461c-0.102-1.969,0.809-3.835,2.522-4.994   c1.868-1.313,3.937-1.815,6.663-1.815c4.188,0,6.913,1.512,8.478,3.433L70.235,147.251L70.235,147.251z"/>
	<path fill-rule="evenodd" clip-rule="evenodd" fill="#636466" d="M89.211,144.928h-6.459v17.664c0,2.927,3.28,2.221,4.947,0.758   l0.858,2.572c-0.757,0.654-2.372,1.565-4.795,1.565c-2.171,0-4.339-0.911-4.339-5.195l-0.052-17.364h-4.037v-2.675h4.037v-5.7   l3.381-1.412v7.112h7.069L89.211,144.928L89.211,144.928z"/>
	<path fill-rule="evenodd" clip-rule="evenodd" fill="#636466" d="M95.722,137.512c-1.662,0-2.673-1.16-2.673-2.627   c0-1.409,1.011-2.624,2.673-2.624c1.719,0,2.727,1.215,2.727,2.624C98.448,136.352,97.44,137.512,95.722,137.512L95.722,137.512z    M97.39,167.136h-3.382v-24.831h3.382V167.136L97.39,167.136z"/>
	<path fill-rule="evenodd" clip-rule="evenodd" fill="#636466" d="M137.235,167.136l-9.437-13.475h-5.451v13.475h-3.431l-0.103-32.5   h10.295c5.401,0,10.498,2.572,10.498,7.87v2.828c-0.051,3.53-2.321,7.215-7.721,7.972l9.944,13.83H137.235L137.235,167.136z    M136.074,142.608c0-3.938-4.239-4.793-7.672-4.793h-6.055v12.666h6.209c3.381,0,7.518-1.515,7.518-5.503V142.608L136.074,142.608z   "/>
	<path fill-rule="evenodd" clip-rule="evenodd" fill="#636466" d="M162.923,167.59c-0.757-0.304-1.411-0.655-2.571-2.221   c-1.869,1.463-5.149,2.17-7.57,2.17c-4.088,0-8.178-2.122-8.783-6.312c-0.707-5.195,3.129-9.286,9.689-9.286h6.36l-0.05-2.422   c0-3.479-3.181-4.845-5.804-4.845c-2.22,0-4.948,0.758-6.612,2.727l-1.916-2.269c1.564-1.921,4.692-3.33,8.881-3.33   c5.349,0,8.779,3.026,8.779,8.021v12.919c0,1.262,0.606,2.374,1.565,3.23L162.923,167.59L162.923,167.59z M159.998,154.872h-6.964   c-6.814,0-7.823,8.122-2.12,9.586c2.674,0.71,6.814-0.253,9.084-1.866V154.872L159.998,154.872z"/>
	<path fill-rule="evenodd" clip-rule="evenodd" fill="#636466" d="M185.533,167.136V149.22c0-3.18-2.774-4.493-6.207-4.493   c-1.16,0-5.148,1.061-7.015,2.927v19.482h-3.331v-32.5h3.28v9.637c0.858-0.907,4.646-2.422,8.128-2.422   c5.095,0,8.477,2.623,8.477,7.471v17.814H185.533L185.533,167.136z"/>
	<path fill-rule="evenodd" clip-rule="evenodd" fill="#636466" d="M203.656,167.136h-3.483l-7.924-24.883h3.434l5.85,19.124   c0.256,0.864,0.454,2.884,0.454,2.884s0.256-2.02,0.607-3.085l6.412-18.923h3.485L203.656,167.136L203.656,167.136z"/>
	<path fill-rule="evenodd" clip-rule="evenodd" fill="#636466" d="M234.741,167.539c-0.5-0.253-1.562-1.112-2.016-1.87   c-2.422,1.266-5.301,1.818-8.276,1.818c-5.299,0-8.578-2.371-8.578-7.313v-17.921h3.331v17.467c0,3.326,2.372,4.939,5.5,4.939   c1.463,0,4.592-0.398,7.116-1.764c-0.154-0.654-0.154-0.958-0.154-0.958v-19.685h3.333v20.441c0,1.255,0.856,2.474,1.767,3.381   L234.741,167.539L234.741,167.539z"/>
	<path fill-rule="evenodd" clip-rule="evenodd" fill="#636466" d="M256.699,147.251c-1.16-1.412-4.136-2.675-6.306-2.675   c-6.918,0-7.976,5.854-1.315,7.621c3.029,0.805,6.053,1.566,8.276,3.531c2.827,2.575,2.576,7.672-1.209,9.995   c-1.718,1.058-3.834,1.764-7.067,1.764c-4.242,0-7.217-1.515-8.882-3.18l2.119-2.524c1.716,1.669,4.844,2.726,7.018,2.726   c1.564,0,2.674-0.149,3.784-0.607c1.311-0.552,2.372-1.511,2.674-2.772c0.201-0.955-0.099-1.914-0.659-2.825   c-1.258-1.917-4.893-2.473-7.263-3.23c-3.637-1.112-6.41-2.979-6.56-6.461c-0.102-1.969,0.805-3.835,2.525-4.994   c1.862-1.313,3.934-1.815,6.658-1.815c4.189,0,6.915,1.512,8.479,3.433L256.699,147.251L256.699,147.251z"/>
	<path fill-rule="evenodd" clip-rule="evenodd" fill="#636466" d="M275.775,145.839c-3.377-1.87-7.063,0.402-8.272,2.876v18.421   h-3.382v-20.339c0-1.613-0.755-2.473-1.463-2.828l2.471-1.716c0.507,0.205,1.867,1.062,1.867,3.739   c0.507-1.668,2.979-4.142,6.561-4.142c1.968,0,3.131,0.556,3.635,0.809L275.775,145.839L275.775,145.839z"/>
	<path fill-rule="evenodd" clip-rule="evenodd" fill="#636466" d="M282.54,137.512c-1.665,0-2.673-1.16-2.673-2.627   c0-1.409,1.008-2.624,2.673-2.624c1.719,0,2.729,1.215,2.729,2.624C285.269,136.352,284.259,137.512,282.54,137.512L282.54,137.512   z M284.207,167.136h-3.379v-24.831h3.379V167.136L284.207,167.136z"/>
	<path fill-rule="evenodd" clip-rule="evenodd" fill="#636466" d="M311.154,167.136h-3.478v-17.313c0-3.18-2.173-5.097-5.604-5.097   c-1.464,0-5.803,1.112-7.622,2.876v19.533h-3.328v-20.24c0-1.313-0.655-2.422-1.615-3.277l2.219-1.365   c0.855,0.355,1.564,0.86,2.221,2.272c2.02-1.614,5.449-2.675,8.982-2.675c5.096,0,8.225,2.623,8.225,7.522V167.136L311.154,167.136   z"/>
	<path fill-rule="evenodd" clip-rule="evenodd" fill="#636466" d="M334.072,145.184c0.959,0.959,1.717,2.521,1.717,4.036v3.38   c0,5.298-6.361,8.024-11.257,7.468l-2.974,4.193c5.5-2.375,15.238-1.818,14.987,5.144c-0.102,3.736-4.442,6.71-11.205,6.71   c-3.635,0-7.772-1.562-9.792-2.974l1.869-2.832c1.663,1.013,4.238,2.682,7.873,2.682c4.339,0,7.471-1.464,7.67-3.531   c0.253-3.537-4.594-3.589-7.318-3.336c-1.865,0.149-4.492,1.163-6.107,1.562l-2.624-2.517l4.391-5.656   c-2.116-0.348-5.801-2.367-5.801-7.365v-2.927c0-4.896,4.793-7.417,10.191-7.417c1.919,0,3.888,0.249,5.7,1.259   c0.963-1.259,3.132-2.572,4.293-2.979l2.371,2.17C336.444,142.758,334.826,143.969,334.072,145.184L334.072,145.184z    M332.402,149.373c0-3.333-3.984-4.749-6.657-4.749c-2.677,0-6.813,1.368-6.813,4.749v3.022c0,3.384,3.938,4.693,6.614,4.693   c2.57,0,6.856-1.258,6.856-4.643V149.373L332.402,149.373z"/>
	<path fill-rule="evenodd" clip-rule="evenodd" fill="#636466" d="M357.438,167.136V149.22c0-3.18-2.775-4.493-6.203-4.493   c-1.164,0-5.152,1.061-7.018,2.927v19.482h-3.33v-32.5h3.279v9.637c0.857-0.907,4.645-2.422,8.123-2.422   c5.098,0,8.483,2.623,8.483,7.471v17.814H357.438L357.438,167.136z"/>
	<path fill-rule="evenodd" clip-rule="evenodd" fill="#636466" d="M384.492,167.59c-0.76-0.304-1.515-0.655-2.673-2.221   c-1.87,1.463-5.304,2.17-7.675,2.17c-4.086,0-7.771-1.516-8.629-5.756c-1.008-4.694,2.775-9.184,9.085-9.184h6.71l-0.053-3.08   c0-3.479-3.077-4.845-5.697-4.845c-2.223,0-4.947,0.758-6.611,2.727l-1.92-2.269c1.563-1.921,4.693-3.33,8.883-3.33   c5.346,0,8.73,3.026,8.73,8.021v12.919c0,1.262,0.656,2.374,1.565,3.23L384.492,167.59L384.492,167.59z M381.258,155.527h-7.164   c-6.509,0.047-7.416,7.467-1.716,8.931c2.675,0.71,6.613-0.253,8.88-1.866V155.527L381.258,155.527z M372.229,138.32   c-1.313,0-2.072-0.911-2.072-2.021c0-1.159,0.759-2.07,2.072-2.07c1.312,0,2.065,0.911,2.065,2.07   C374.295,137.409,373.541,138.32,372.229,138.32h7.62c-1.261,0-2.019-0.911-2.019-2.021c0-1.159,0.758-2.07,2.019-2.07   c1.309,0,2.068,0.911,2.068,2.07c0,1.109-0.76,2.021-2.068,2.021H372.229L372.229,138.32z"/>
	<path fill-rule="evenodd" clip-rule="evenodd" fill="#636466" d="M408.768,167.59c-0.759-0.304-1.513-0.655-2.676-2.221   c-1.866,1.463-5.301,2.17-7.673,2.17c-4.089,0-7.769-1.516-8.628-5.756c-1.008-4.694,2.775-9.184,9.084-9.184h6.709l-0.047-3.08   c0-3.479-3.077-4.845-5.702-4.845c-2.221,0-4.948,0.758-6.611,2.727l-1.917-2.269c1.566-1.921,4.69-3.33,8.883-3.33   c5.348,0,8.73,3.026,8.73,8.021v12.919c0,1.262,0.65,2.374,1.566,3.23L408.768,167.59L408.768,167.59z M405.537,155.527h-7.166   c-6.51,0.047-7.42,7.467-1.717,8.931c2.678,0.71,6.611-0.253,8.883-1.866V155.527L405.537,155.527z M396.504,138.32   c-1.313,0-2.072-0.911-2.072-2.021c0-1.159,0.76-2.07,2.072-2.07c1.313,0,2.066,0.911,2.066,2.07   C398.57,137.409,397.817,138.32,396.504,138.32h7.623c-1.264,0-2.021-0.911-2.021-2.021c0-1.159,0.758-2.07,2.021-2.07   c1.307,0,2.066,0.911,2.066,2.07c0,1.109-0.76,2.021-2.066,2.021H396.504L396.504,138.32z"/>
	<path fill-rule="evenodd" clip-rule="evenodd" fill="#636466" d="M420.103,167.487c-2.123,0-4.343-0.911-4.343-5.195v-27.708h3.328   v28.008c0,2.927,3.283,2.221,4.947,0.758l0.91,2.572C424.191,166.576,422.525,167.487,420.103,167.487L420.103,167.487z"/>
	<path fill-rule="evenodd" clip-rule="evenodd" fill="#636466" d="M430.625,137.512c-1.666,0-2.679-1.16-2.679-2.627   c0-1.409,1.013-2.624,2.679-2.624c1.713,0,2.725,1.215,2.725,2.624C433.35,136.352,432.338,137.512,430.625,137.512   L430.625,137.512z M432.29,167.136h-3.383v-24.831h3.383V167.136L432.29,167.136z"/>
	<path fill-rule="evenodd" clip-rule="evenodd" fill="#636466" d="M459.234,167.136h-3.48v-17.313c0-3.18-2.173-5.097-5.598-5.097   c-1.466,0-5.809,1.112-7.625,2.876v19.533h-3.33v-20.24c0-1.313-0.654-2.422-1.613-3.277l2.219-1.365   c0.856,0.355,1.566,0.86,2.223,2.272c2.018-1.614,5.446-2.675,8.982-2.675c5.093,0,8.223,2.623,8.223,7.522V167.136   L459.234,167.136z"/>
	<path fill-rule="evenodd" clip-rule="evenodd" fill="#636466" d="M482.151,145.184c0.958,0.959,1.718,2.521,1.718,4.036v3.38   c0,5.298-6.359,8.024-11.256,7.468l-2.979,4.193c5.503-2.375,15.24-1.818,14.99,5.144c-0.1,3.736-4.443,6.71-11.201,6.71   c-3.639,0-7.777-1.562-9.793-2.974l1.867-2.832c1.662,1.013,4.241,2.682,7.874,2.682c4.334,0,7.467-1.464,7.668-3.531   c0.255-3.537-4.593-3.589-7.316-3.336c-1.868,0.149-4.493,1.163-6.106,1.562l-2.627-2.517l4.395-5.656   c-2.123-0.348-5.805-2.367-5.805-7.365v-2.927c0-4.896,4.793-7.417,10.191-7.417c1.918,0,3.887,0.249,5.703,1.259   c0.959-1.259,3.131-2.572,4.292-2.979l2.37,2.17C484.525,142.758,482.908,143.969,482.151,145.184L482.151,145.184z    M480.482,149.373c0-3.333-3.982-4.749-6.658-4.749c-2.675,0-6.813,1.368-6.813,4.749v3.022c0,3.384,3.938,4.693,6.611,4.693   c2.572,0,6.859-1.258,6.859-4.643V149.373L480.482,149.373z"/>
</g>
</svg>