<?xml version="1.0" encoding="UTF-8" standalone="no"?>
<!-- Created with Inkscape (http://www.inkscape.org/) -->
<svg xmlns:dc="http://purl.org/dc/elements/1.1/" xmlns:cc="http://creativecommons.org/ns#" xmlns:rdf="http://www.w3.org/1999/02/22-rdf-syntax-ns#" xmlns:svg="http://www.w3.org/2000/svg" xmlns="http://www.w3.org/2000/svg" xmlns:sodipodi="http://sodipodi.sourceforge.net/DTD/sodipodi-0.dtd" xmlns:inkscape="http://www.inkscape.org/namespaces/inkscape" width="275" height="187.53596" id="svg2" version="1.1" inkscape:version="0.48.3.1 r9886" sodipodi:docname="npo1 neu.svg">
  <defs id="defs4">
    <clipPath id="clipPath2999" clipPathUnits="userSpaceOnUse">
      <path id="path3001" d="m 0,124.725 187.086,0 L 187.086,0 0,0 0,124.725 z" inkscape:connector-curvature="0"/>
    </clipPath>
    <clipPath id="clipPath3046" clipPathUnits="userSpaceOnUse">
      <path id="path3048" d="m 0,124.725 187.086,0 L 187.086,0 0,0 0,124.725 z" inkscape:connector-curvature="0"/>
    </clipPath>
  </defs>
  <sodipodi:namedview id="base" pagecolor="#ffffff" bordercolor="#666666" borderopacity="1.0" inkscape:pageopacity="0.0" inkscape:pageshadow="2" inkscape:zoom="0.35" inkscape:cx="-547.23495" inkscape:cy="353.30157" inkscape:document-units="px" inkscape:current-layer="layer1" showgrid="false" fit-margin-top="5" fit-margin-right="5" fit-margin-left="5" fit-margin-bottom="5" inkscape:window-width="1680" inkscape:window-height="1000" inkscape:window-x="-8" inkscape:window-y="-8" inkscape:window-maximized="1"/>
  <metadata id="metadata7">
    <rdf:RDF>
      <cc:Work rdf:about="">
        <dc:format>image/svg+xml</dc:format>
        <dc:type rdf:resource="http://purl.org/dc/dcmitype/StillImage"/>
        <dc:title/>
      </cc:Work>
    </rdf:RDF>
  </metadata>
  <g inkscape:label="Ebene 1" inkscape:groupmode="layer" id="layer1" transform="translate(-897.23496,-698.12778)">
    <g transform="matrix(2.148273,0,0,-2.148273,833.7797,925.86717)" inkscape:label="NPO_TV2_Logo_CMYK" id="g3040">
      <g id="g3042">
        <g clip-path="url(#clipPath3046)" id="g3044">
          <g transform="translate(79.707,92.4277)" id="g3050">
            <path id="path3052" style="fill:#e4e4e5;fill-opacity:1;fill-rule:nonzero;stroke:none" d="M 0,0 -2.542,2.536 C -5.06,5.06 -8.093,5.104 -10.921,2.274 l -2.014,-2.016 c -2.831,-2.829 -2.784,-5.857 -0.266,-8.38 l 2.542,-2.535 c 2.52,-2.53 5.552,-2.573 8.38,0.256 l 2.013,2.018 C 2.566,-5.554 2.521,-2.524 0,0 m -12.734,-12.734 -2.545,2.534 c -2.52,2.523 -5.549,2.57 -8.377,-0.262 l -2.016,-2.017 c -2.83,-2.827 -2.786,-5.853 -0.265,-8.379 l 8.153,-8.149 c 0.942,-0.937 2.002,-0.8 2.725,-0.077 0.724,0.724 0.846,1.765 -0.093,2.708 l -1.876,1.871 c 0.51,0.108 1.138,0.497 1.877,1.234 l 2.151,2.155 c 2.834,2.828 2.785,5.855 0.266,8.382 m -10.107,-15.828 -5.4,5.397 c -2.523,2.523 -5.549,2.57 -8.381,-0.26 l -2.016,-2.013 c -2.83,-2.83 -2.785,-5.86 -0.261,-8.383 l 5.396,-5.403 c 0.944,-0.94 2,-0.799 2.725,-0.08 0.721,0.727 0.846,1.776 -0.097,2.711 l -5.35,5.356 c -1.014,1.011 -0.983,1.966 0.157,3.104 l 2.138,2.137 c 1.136,1.14 2.093,1.173 3.106,0.155 l 5.351,-5.349 c 0.937,-0.943 1.985,-0.817 2.708,-0.095 0.725,0.725 0.864,1.782 -0.076,2.723 m 55.115,-6.806 -33.491,-33.488 c -3.371,-3.373 -7.239,-3.373 -10.608,0 l -33.487,33.486 c -3.373,3.372 -3.373,7.237 0,10.609 l 33.488,33.485 c 3.373,3.375 7.237,3.375 10.607,0 l 33.488,-33.485 c 3.374,-3.369 3.374,-7.236 0.003,-10.607 m -37.395,35.23 c -1.018,1.015 -1.971,0.985 -3.108,-0.156 l -2.139,-2.139 c -1.136,-1.135 -1.169,-2.091 -0.151,-3.103 l 2.443,-2.447 c 1.016,-1.018 1.967,-0.987 3.108,0.154 l 2.138,2.139 c 1.134,1.134 1.167,2.093 0.153,3.104 l -2.444,2.448 z m -10.291,-15.184 c 1.014,-1.013 0.982,-1.97 -0.156,-3.104 l -2.137,-2.139 c -1.142,-1.139 -2.089,-1.17 -3.106,-0.153 l -2.446,2.447 c -1.015,1.012 -0.986,1.968 0.151,3.104 l 2.136,2.139 c 1.143,1.14 2.095,1.168 3.112,0.154 l 2.446,-2.448 z" inkscape:connector-curvature="0"/>
          </g>
          <g transform="translate(64.2949,77.1055)" id="g3054">
            <path id="path3056" style="fill:#339dd3;fill-opacity:1;fill-rule:nonzero;stroke:none" d="M 0,0 -2.446,2.448 C -3.463,3.462 -4.415,3.435 -5.558,2.294 L -7.694,0.155 C -8.831,-0.98 -8.86,-1.937 -7.845,-2.948 l 2.446,-2.448 c 1.017,-1.017 1.964,-0.986 3.106,0.153 l 2.137,2.139 C 0.982,-1.97 1.014,-1.013 0,0 M 2.678,2.588 C 5.197,0.062 5.246,-2.966 2.412,-5.794 L 0.261,-7.949 c -0.739,-0.737 -1.367,-1.126 -1.877,-1.234 l 1.876,-1.871 c 0.939,-0.943 0.817,-1.984 0.094,-2.708 -0.724,-0.722 -1.784,-0.86 -2.726,0.077 l -8.153,8.149 c -2.521,2.526 -2.565,5.553 0.265,8.38 l 2.016,2.016 c 2.828,2.832 5.857,2.786 8.377,0.262 L 2.678,2.588 z m 10.057,10.148 -2.444,2.449 C 9.273,16.199 8.32,16.169 7.183,15.028 L 5.044,12.89 C 3.908,11.754 3.875,10.798 4.894,9.786 L 7.336,7.339 C 8.353,6.321 9.303,6.353 10.444,7.493 l 2.138,2.139 c 1.134,1.135 1.167,2.094 0.153,3.104 m 2.677,2.586 C 17.933,12.798 17.979,9.769 15.146,6.939 L 13.133,4.921 C 10.305,2.092 7.273,2.136 4.753,4.665 L 2.211,7.2 c -2.518,2.524 -2.565,5.551 0.267,8.38 l 2.013,2.017 c 2.828,2.83 5.862,2.785 8.379,0.261 l 2.542,-2.536 z M -7.429,-13.239 c 0.94,-0.942 0.802,-1.998 0.076,-2.724 -0.723,-0.722 -1.771,-0.848 -2.708,0.095 l -5.351,5.349 c -1.013,1.018 -1.97,0.985 -3.106,-0.155 l -2.138,-2.137 c -1.14,-1.137 -1.171,-2.092 -0.157,-3.104 l 5.35,-5.356 c 0.943,-0.935 0.818,-1.984 0.097,-2.71 -0.725,-0.72 -1.78,-0.861 -2.725,0.08 l -5.396,5.402 c -2.524,2.523 -2.569,5.554 0.261,8.384 l 2.017,2.012 c 2.832,2.831 5.857,2.784 8.38,0.26 l 5.4,-5.396 z" inkscape:connector-curvature="0"/>
          </g>
          <g transform="translate(75.1074,67.6675)" id="g3058">
            <path id="path3060" style="fill:#339dd3;fill-opacity:1;fill-rule:nonzero;stroke:none" d="m 0,0 c -3.371,-3.371 -3.371,-7.236 0,-10.607 l 33.487,-33.489 c 3.373,-3.373 7.238,-3.373 10.612,0 l 33.487,33.489 c 3.371,3.371 3.367,7.238 0,10.607 L 44.099,33.485 c -3.374,3.374 -7.239,3.374 -10.609,0 L 0,0 z" inkscape:connector-curvature="0"/>
          </g>
          <g transform="translate(127.7891,57.7446)" id="g3062">
            <path id="path3064" style="fill:#ffffff;fill-opacity:1;fill-rule:nonzero;stroke:none" d="m 0,0 c 3.486,0 5.271,2.178 5.271,4.876 l 0,15.462 c 0,2.699 -1.785,4.877 -5.271,4.878 l -27.908,-0.001 c -3.399,0 -5.141,-2.133 -5.142,-4.748 10e-4,-2.613 1.743,-4.747 5.142,-4.747 l 21.64,10e-4 c 0.741,-10e-4 1.176,-0.392 1.176,-1.262 l 0,-3.703 c 0,-0.87 -0.435,-1.261 -1.176,-1.261 L -27.777,9.494 c -3.485,0 -5.273,-2.178 -5.272,-4.877 l 0,-15.459 c -10e-4,-2.701 1.787,-4.876 5.27,-4.875 l 27.912,-10e-4 c 3.394,10e-4 5.138,2.134 5.138,4.747 0,2.612 -1.744,4.744 -5.138,4.744 l -21.643,0 c -0.74,0 -1.176,0.393 -1.176,1.264 l 0,3.701 c 0,0.87 0.438,1.262 1.176,1.262 L 0,0 z" inkscape:connector-curvature="0"/>
          </g>
        </g>
      </g>
    </g>
  </g>
</svg>