<?xml version="1.0" encoding="UTF-8"?>
<!-- Generator: Adobe Illustrator 12.0.0, SVG Export Plug-In . SVG Version: 6.00 Build 51448)  -->
<!DOCTYPE svg PUBLIC "-//W3C//DTD SVG 1.1//EN" "http://www.w3.org/Graphics/SVG/1.1/DTD/svg11.dtd">
<svg version="1.1" id="Layer_1" xmlns="http://www.w3.org/2000/svg" xmlns:xlink="http://www.w3.org/1999/xlink" width="307.924" height="76.932" viewBox="0 0 307.924 76.932" overflow="visible" enable-background="new 0 0 307.924 76.932" xml:space="preserve">
<g>
	<g>
		<path fill="#005A9B" d="M138.535,64.521c-1.37-1.369-3.036-2.033-5.094-2.033l-41.248,0.01h-0.057l-0.055,0.008l0.104-0.005    c-1.725-0.019-3.064-0.489-4.103-1.444c-1.04-0.956-1.542-2.2-1.542-3.807V30.648l46.823,0.002c1.565,0,3.378-0.203,4.934-1.715    c1.396-1.361,2.104-3.044,2.104-5.004c0-1.955-0.723-3.669-2.146-5.094c-1.422-1.424-3.137-2.145-5.092-2.145H86.54l0.001-7.254    V7.066c0-1.878-0.686-3.535-2.037-4.925c-1.36-1.396-3.043-2.1-5.005-2.1c-1.954,0-3.667,0.721-5.092,2.147    c-1.424,1.422-2.144,3.137-2.144,5.092v55.913c0,8.948,4.315,13.291,13.199,13.291l48.178-0.011c1.882,0,3.543-0.687,4.934-2.037    c1.398-1.361,2.105-3.045,2.105-5.003C140.68,67.547,139.998,65.986,138.535,64.521L138.535,64.521z"/>
		<path fill="#005A9B" d="M177.858,16.766c-1.689,0-3.456,0.197-4.936,1.633c-1.396,1.361-2.104,3.044-2.104,5.003    c0,1.955,0.723,3.669,2.146,5.093s3.138,2.145,5.094,2.145l1.06,0.01c0,0,0.197,0.002,0.334,0.002h25.479    c1.68,0,2.978,0.48,3.968,1.471c0.988,0.988,1.468,2.256,1.468,3.869l0.074,21.281c0,1.599-0.503,2.841-1.54,3.795    c-1.06,0.971-2.399,1.444-4.095,1.444h-34.152c-1.768,0-3.138-0.472-4.195-1.444c-1.039-0.953-1.543-2.193-1.543-3.797    l-0.074-50.232c0-1.88-0.686-3.541-2.039-4.932C161.441,0.707,159.76,0,157.799,0c-1.953,0-3.668,0.721-5.092,2.146    c-1.424,1.424-2.145,3.138-2.145,5.093v55.773c0,8.945,4.568,13.48,13.578,13.48l46.928,0.023c9.009,0,13.578-4.498,13.578-13.365    V29.868c0-8.687-4.335-12.961-13.258-13.071L177.858,16.766L177.858,16.766z"/>
		<path fill="#005A9B" d="M305.817,29.046c1.397-1.36,2.106-3.043,2.106-5.002c0-1.956-0.724-3.669-2.146-5.093    c-1.479-1.478-3.19-2.227-5.093-2.227l-52.542,0.006c-8.729,0.191-13.107,4.59-13.04,13.071    c-0.004,0.163-0.297,18.475-0.297,21.169v18.895c0,1.896,0.704,3.567,2.095,4.962c1.393,1.397,3.055,2.104,4.946,2.104    c1.954,0,3.65-0.707,5.046-2.104c1.445-1.457,2.178-3.128,2.178-4.967l0.016-12.438l0.055-13.551l0.041-9.705    c0-2.306,1.089-3.479,3.252-3.479l48.45-0.005C302.573,30.682,304.338,30.482,305.817,29.046L305.817,29.046z"/>
		<path fill="#005A9B" d="M61.017,18.762c-1.34-1.343-3.008-1.995-5.092-1.995H17.264c-0.662,0.017-1.239-0.03-1.508-0.04    c-1.009-0.035-1.634-0.379-2.231-1.229c-1.313-1.864-4.11-2.528-6.289-2.528c-2.152,0-4.128,0.863-5.563,2.425    c-1.356,1.48-1.635,3.053-1.635,4.961v8.4C0.019,29.113,0,29.479,0,29.863v39.652c0,1.888,0.724,3.566,2.147,4.987    c1.422,1.421,3.134,2.144,5.09,2.144c1.957,0,3.638-0.689,4.996-2.047s2.047-3.038,2.047-4.994V36.128    c0-1.676,0.547-3.102,1.541-4.015c1.033-0.951,2.37-1.423,4.086-1.443h36.217c2.096,0,3.662-0.575,4.936-1.812    c1.397-1.36,2.104-3.044,2.104-5.003C63.164,21.898,62.442,20.188,61.017,18.762L61.017,18.762z"/>
	</g>
	<path d="M290.597,50.188L290.597,50.188v-0.004c0-2.135-0.82-3.951-2.435-5.396c-1.554-1.395-3.46-2.1-5.666-2.1H268.79   c-2.207,0-4.115,0.705-5.669,2.1c-1.612,1.444-2.432,3.26-2.432,5.396v0.005v0.005c0,2.137,0.819,3.953,2.432,5.396   c1.554,1.393,3.462,2.102,5.669,2.102h13.706c2.206,0,4.112-0.709,5.666-2.102c1.614-1.445,2.435-3.26,2.435-5.396V50.188   L290.597,50.188z"/>
</g>
</svg>