<?xml version="1.0" encoding="UTF-8" standalone="no"?>
<!-- Generator: Adobe Illustrator 13.0.0, SVG Export Plug-In . SVG Version: 6.00 Build 14948)  -->
<svg xmlns:ns="http://creativecommons.org/ns#" xmlns:dc="http://purl.org/dc/elements/1.1/" xmlns:cc="http://web.resource.org/cc/" xmlns:rdf="http://www.w3.org/1999/02/22-rdf-syntax-ns#" xmlns:svg="http://www.w3.org/2000/svg" xmlns="http://www.w3.org/2000/svg" xmlns:sodipodi="http://sodipodi.sourceforge.net/DTD/sodipodi-0.dtd" xmlns:inkscape="http://www.inkscape.org/namespaces/inkscape" version="1.1" id="Layer_1" x="0px" y="0px" width="417.863px" height="142.953px" viewBox="0 0 417.863 142.953" enable-background="new 0 0 417.863 142.953" xml:space="preserve" sodipodi:version="0.32" inkscape:version="0.45.1" sodipodi:docname="TVP logo.svg" inkscape:output_extension="org.inkscape.output.svg.inkscape" sodipodi:docbase="C:\Users\Mike\Documents\Pictures"><metadata id="metadata40"><rdf:RDF><ns:Work rdf:about=""><dc:format>image/svg+xml</dc:format><dc:type rdf:resource="http://purl.org/dc/dcmitype/StillImage"/></ns:Work><cc:Work rdf:about=""><dc:format>image/svg+xml</dc:format><dc:type rdf:resource="http://purl.org/dc/dcmitype/StillImage"/></cc:Work></rdf:RDF></metadata><defs id="defs38"/><sodipodi:namedview inkscape:window-height="944" inkscape:window-width="1264" inkscape:pageshadow="2" inkscape:pageopacity="0.0" guidetolerance="10.0" gridtolerance="10.0" objecttolerance="10.0" borderopacity="1.0" bordercolor="#666666" pagecolor="#ffffff" id="base" showgrid="false" inkscape:zoom="1.3018621" inkscape:cx="208.9315" inkscape:cy="71.476501" inkscape:window-x="0" inkscape:window-y="44" inkscape:current-layer="Layer_1"/>
















<g id="g2415"><polygon id="polygon3" points="121.19,0 296.673,0 296.673,85.253 121.19,85.253 121.19,0" fill="#00539F" clip-rule="evenodd" fill-rule="evenodd"/><path id="path5" d="M189.255,16.167h39.346v51.64h-39.346V16.167L189.255,16.167z   M231.473,16.167h39.346v51.64h-39.346V16.167L231.473,16.167z M239.982,24.669v35.188h7.125V49.114l1.537,0.05  c9.596,0,14.309-6.224,14.309-12.397c-0.001-6.073-4.564-12.098-13.654-12.098L239.982,24.669L239.982,24.669z M247.096,31.479  h2.566c4.071,0.062,6.102,1.44,6.393,5.49c-0.252,4.203-2.633,5.54-6.732,5.61h-2.227V31.479L247.096,31.479z M208.928,60.922  L192.636,24.25h7.911l8.098,18.546l0.283,1.103l0.286-1.118l8.095-18.531h7.912L208.928,60.922L208.928,60.922z M180.349,31.484  v-6.808h-27.273v6.808h9.853v28.373h7.567V31.484H180.349L180.349,31.484z M147.04,16.167h39.346v51.64H147.04V16.167L147.04,16.167  z M144.167,13.614H273.69v56.747H144.167V13.614L144.167,13.614z" fill="#FFFFFF" clip-rule="evenodd" fill-rule="evenodd"/><path id="path7" d="M198.577,132.847V113.64h-6.82v17.598  c0,3.957-0.894,5.82-3.727,5.82c-0.932,0-2.125-0.336-3.578-0.971l0.634,6.381c1.267,0.297,2.422,0.484,3.652,0.484  C195.037,142.953,198.577,139.443,198.577,132.847L198.577,132.847z" fill="#00539F" clip-rule="evenodd" fill-rule="evenodd"/><polygon id="polygon9" points="179.974,136.013 165.924,136.013 179.974,113.64 157.464,113.64 156.384,119.566 169.055,119.566 154.93,142.013 178.893,142.013 179.974,136.013" fill="#00539F" clip-rule="evenodd" fill-rule="evenodd"/><polygon id="polygon11" points="148.762,142.013 148.762,113.64 141.979,113.64 141.979,142.013 148.762,142.013" fill="#00539F" clip-rule="evenodd" fill-rule="evenodd"/><polygon id="polygon13" points="137.546,113.64 131.211,113.64 125.77,128.927 119.807,112.708 119.285,112.708 113.359,128.927 107.807,113.64 100.943,113.64 112.838,142.953 113.359,142.953 119.285,126.691 125.322,142.953 125.77,142.953 137.546,113.64" fill="#00539F" clip-rule="evenodd" fill-rule="evenodd"/><polygon id="polygon15" points="96.51,142.013 96.51,136.05 85.441,136.05 85.441,130.423 94.795,130.423 94.795,124.611 85.441,124.611 85.441,119.492 96.361,119.492 96.361,113.64 78.882,113.64 78.882,142.013 96.51,142.013" fill="#00539F" clip-rule="evenodd" fill-rule="evenodd"/><polygon id="polygon17" points="73.563,142.013 73.563,135.939 62.494,135.939 62.494,113.64 55.711,113.64 55.711,142.013 73.563,142.013" fill="#00539F" clip-rule="evenodd" fill-rule="evenodd"/><polygon id="polygon19" points="47.731,142.013 47.731,136.05 36.662,136.05 36.662,130.423 46.017,130.423 46.017,124.611 36.662,124.611 36.662,119.492 47.582,119.492 47.582,113.64 30.103,113.64 30.103,142.013 47.731,142.013" fill="#00539F" clip-rule="evenodd" fill-rule="evenodd"/><polygon id="polygon21" points="24.784,119.566 24.784,113.64 0,113.64 0,119.566 9.019,119.566 9.019,142.013 15.802,142.013 15.802,119.566 24.784,119.566" fill="#00539F" clip-rule="evenodd" fill-rule="evenodd"/><polygon id="polygon23" points="387.029,142.013 375.476,127.138 386.172,113.64 378.122,113.64 368.768,125.982 368.768,113.64 362.06,113.64 362.06,142.013 368.768,142.013 368.768,128.927 378.867,142.013 387.029,142.013" fill="#00539F" clip-rule="evenodd" fill-rule="evenodd"/><path id="path25" d="M353.961,133.666c0-4.51-2.907-6.596-7.044-8.869l-3.317-1.863  c-1.341-0.709-1.975-1.604-1.975-2.572c0-1.379,1.155-2.273,3.094-2.273c1.527,0,3.987,0.82,7.006,2.684v-6.633  c-2.684-0.932-5.031-1.453-7.155-1.453c-5.628,0-9.28,3.354-9.28,7.824c0,3.355,1.789,6.002,5.516,8.088l1.901,1.082  c2.944,1.639,4.732,2.459,4.732,4.434c0,1.566-1.453,2.758-3.876,2.758c-2.721,0-5.143-1.117-8.013-2.869l0.56,7.564  c2.832,0.902,5.329,1.387,7.527,1.387C350.085,142.953,353.961,138.996,353.961,133.666L353.961,133.666z" fill="#00539F" clip-rule="evenodd" fill-rule="evenodd"/><polygon id="polygon27" points="329.332,142.013 329.332,135.939 318.264,135.939 318.264,113.64 311.48,113.64 311.48,142.013 329.332,142.013" fill="#00539F" clip-rule="evenodd" fill-rule="evenodd"/><path id="path29" d="M406.907,132.996h-7.454l3.764-8.908L406.907,132.996  L406.907,132.996z M417.863,142.013l-14.124-29.254h-0.447l-14.467,29.254h6.826l1.826-4.137h11.516l1.789,4.137H417.863  L417.863,142.013z" fill="#00539F" clip-rule="evenodd" fill-rule="evenodd"/><path id="path31" d="M298.316,127.816c0,5.068-3.316,8.719-7.49,8.719  c-4.175,0-7.491-3.688-7.491-8.719c0-5.033,3.316-8.723,7.491-8.723C295,119.093,298.316,122.746,298.316,127.816L298.316,127.816z   M305.285,127.816c0-8.188-6.063-15.094-14.459-15.094c-8.345,0-14.461,6.945-14.461,15.094c0,8.107,6.14,15.137,14.461,15.137  C299.282,142.953,305.285,135.955,305.285,127.816L305.285,127.816z" fill="#00539F" clip-rule="evenodd" fill-rule="evenodd"/><path id="path33" d="M265.709,122.554c0,2.465-1.789,3.881-5.255,3.881h-1.229v-7.613  h0.932C263.883,118.822,265.709,119.865,265.709,122.554L265.709,122.554z M271.933,122.33c0-2.576-1.229-5-3.354-6.564  c-2.422-1.826-5.18-2.125-8.832-2.125h-7.305v28.373h6.783v-10.359c0.447,0.037,0.856,0.037,1.304,0.037  C267.684,131.691,271.933,127.964,271.933,122.33L271.933,122.33z" fill="#00539F" clip-rule="evenodd" fill-rule="evenodd"/><path id="path35" d="M221.092,132.996h-7.453l3.764-8.908L221.092,132.996  L221.092,132.996z M232.049,142.013l-14.125-29.254h-0.447l-14.466,29.254h6.826l1.826-4.137h11.516l1.789,4.137H232.049  L232.049,142.013z" fill="#00539F" clip-rule="evenodd" fill-rule="evenodd"/></g>
</svg>