<?xml version="1.0" encoding="UTF-8" standalone="no"?>
<!-- Created with Inkscape (http://www.inkscape.org/) -->
<svg xmlns:dc="http://purl.org/dc/elements/1.1/" xmlns:cc="http://creativecommons.org/ns#" xmlns:rdf="http://www.w3.org/1999/02/22-rdf-syntax-ns#" xmlns:svg="http://www.w3.org/2000/svg" xmlns="http://www.w3.org/2000/svg" xmlns:xlink="http://www.w3.org/1999/xlink" xmlns:sodipodi="http://sodipodi.sourceforge.net/DTD/sodipodi-0.dtd" xmlns:inkscape="http://www.inkscape.org/namespaces/inkscape" width="475.09879" height="321.78476" id="svg2" version="1.1" inkscape:version="0.48.3.1 r9886" sodipodi:docname="npo1.svg">
  <defs id="defs4">
    <defs id="defs3221">
      <polyline id="SVGID_1_" points="0,0 226.484,0 226.66,226.719 0.18,226.719"/>
    </defs>
    <clipPath id="SVGID_2_">
      <use height="1" width="1" y="0" x="0" style="overflow:visible" xlink:href="#SVGID_1_" overflow="visible" id="use3225"/>
    </clipPath>
  </defs>
  <sodipodi:namedview id="base" pagecolor="#ffffff" bordercolor="#666666" borderopacity="1.0" inkscape:pageopacity="0.0" inkscape:pageshadow="2" inkscape:zoom="1.979899" inkscape:cx="207.71283" inkscape:cy="174.85993" inkscape:document-units="px" inkscape:current-layer="layer1" showgrid="false" fit-margin-top="5" fit-margin-left="5" fit-margin-right="5" fit-margin-bottom="5" inkscape:window-width="1680" inkscape:window-height="1000" inkscape:window-x="-8" inkscape:window-y="-8" inkscape:window-maximized="1"/>
  <metadata id="metadata7">
    <rdf:RDF>
      <cc:Work rdf:about="">
        <dc:format>image/svg+xml</dc:format>
        <dc:type rdf:resource="http://purl.org/dc/dcmitype/StillImage"/>
        <dc:title/>
      </cc:Work>
    </rdf:RDF>
  </metadata>
  <g inkscape:label="Ebene 1" inkscape:groupmode="layer" id="layer1" transform="translate(-151.22783,-189.32837)">
    <g id="layer1-9" transform="matrix(0.54674441,0,0,0.54674441,153.18678,187.00033)" style="fill:#e5e7e4;fill-opacity:1">
      <rect style="fill:#e5e7e4;fill-opacity:1;fill-rule:nonzero;stroke:none" id="rect3273" transform="matrix(0.7071068,0.7071068,-0.7071068,0.7071068,0,0)" y="-209.43587" x="201.53545" ry="45.945595" height="429.96051" width="429.96051"/>
    </g>
    <path style="fill:#0fdf2c;fill-opacity:1" inkscape:connector-curvature="0" clip-path="url(#SVGID_2_)" d="M 10.078,99.156 99.25,9.98 c 7.035,-7.031 18.465,-7.031 25.531,0 l 89.508,89.176 c 7.059,7.035 7.078,18.438 0.047,25.48 l -89.18,89.168 c -7.027,7.031 -18.457,7.031 -25.516,0 L 10.128,124.636 c -7.066,-7.042 -7.085,-18.445 -0.05,-25.48" id="path3227" transform="matrix(1.4539851,0,0,1.4539851,302.03691,187.57808)"/>
    <path inkscape:connector-curvature="0" style="fill:#0fdf2c;fill-opacity:1;stroke:none" d="m 311.82517,219.47189 c -5.69276,-0.0286 -10.73534,2.24331 -12.84467,4.29374 l -15.32956,15.38438 c -3.64522,3.74991 -7.94617,16.72077 1.09627,26.23748 l 12.80813,12.8264 c 9.51671,9.04244 22.48757,4.74149 26.23748,1.09627 L 339.1772,263.9806 c 2.05043,-2.10933 4.32238,-7.15191 4.29373,-12.84467 -0.0223,-4.42771 -1.43394,-9.24752 -5.39001,-13.41108 l -12.84467,-12.86294 c -4.16356,-3.95607 -8.98337,-5.36775 -13.41108,-5.39002 z m -0.51159,14.21502 c 1.61656,-0.0329 3.19486,0.57749 4.42163,1.75404 l 11.58396,12.16863 c 2.35308,2.45354 2.42412,6.32842 -0.34715,9.06253 l -11.05409,10.99928 c -2.73412,2.77127 -6.609,2.70024 -9.06253,0.34715 l -11.52915,-12.11382 c -2.35308,-2.45354 -2.42411,-6.32842 0.34716,-9.06253 l 10.99927,-11.07236 c 1.36706,-1.38564 3.02433,-2.05006 4.6409,-2.08292 z" id="path4360"/>
    <path id="path3547" style="fill:#0fdf2c;fill-opacity:1;stroke:none" d="m 202.14906,320.77754 c 3.74991,-3.64522 16.73595,-7.93721 26.25266,1.10523 l 21.8416,21.58693 c 6.95781,6.07732 -1.51272,18.29256 -9.88174,10.18601 l -21.45782,-21.19834 c -2.45354,-2.35308 -6.32596,-2.43072 -9.06007,0.34055 l -11.00767,11.05989 c -2.77126,2.73411 -2.69362,6.60653 -0.34054,9.06006 l 21.19834,21.45782 c 8.10655,8.36903 -4.10869,16.83956 -10.18601,9.88175 l -21.58693,-21.8416 c -9.04244,-9.51671 -4.75045,-22.50275 -1.10523,-26.25267 z" inkscape:connector-curvature="0" sodipodi:nodetypes="ccccccccccccc"/>
    <path inkscape:connector-curvature="0" style="fill:#0fdf2c;fill-opacity:1;stroke:none" d="m 263.79012,267.39732 c -5.69277,-0.0286 -10.73535,2.2433 -12.84468,4.29374 l -15.32955,15.38437 c -3.64522,3.74992 -7.94617,16.72078 1.09627,26.23748 l 10.56077,10.4146 21.59659,21.85239 c 6.07732,6.95781 18.28362,-1.51571 10.17707,-9.88474 l -7.05269,-6.90652 c 2.27496,-0.91445 3.36507,-1.2235 4.91496,-2.74068 l 14.05057,-13.75824 c 3.64522,-3.74991 7.94617,-16.73904 -1.09627,-26.25575 L 277.2012,272.78733 c -4.16356,-3.95607 -8.98338,-5.36774 -13.41108,-5.39001 z m -0.5116,14.21501 c 1.61656,-0.0328 3.19487,0.5775 4.42164,1.75404 l 11.58396,12.16864 c 2.35308,2.45354 2.42411,6.32842 -0.34716,9.06253 l -11.05409,10.99928 c -2.73411,2.77126 -6.60899,2.70023 -9.06253,0.34715 L 247.2912,303.83015 c -2.35308,-2.45354 -2.42412,-6.32842 0.34715,-9.06253 l 10.99928,-11.07237 c 1.36706,-1.38563 3.02433,-2.05006 4.64089,-2.08292 z" id="path3567"/>
    <use id="use5344" xlink:href="#id898" x="0" y="0" width="744.09448" height="1052.3622" transform="matrix(0.75505287,0,0,-25.168387,581.28887,-474.88462)"/>
    <use id="use5352" xlink:href="#id898" x="0" y="0" width="744.09448" height="1052.3622" transform="matrix(0.75505287,0,0,-25.420061,581.28887,-446.69602)"/>
    <path style="fill:#ffffff;fill-rule:nonzero;stroke:none" d="m 519.329,272.66659 -109.65307,0 c -10.40534,0 -18.82572,8.44128 -18.82572,18.82572 0,10.40535 8.42038,18.82573 18.82572,18.82573 l 90.82734,0 0,22.41954 -91.60042,0 c -10.40534,0 -18.82573,8.44128 -18.82573,18.82573 0,10.40534 8.42039,18.82572 18.82573,18.82572 l 91.60042,0 0,21.87629 -90.82734,0 c -10.40534,0 -18.82572,8.42039 -18.82572,18.82573 0,10.40534 8.42038,18.82572 18.82572,18.82572 l 109.65307,0 c 10.40534,0 18.82573,-8.42038 18.82573,-18.82572 l 0,-119.59874 c 0,-10.38444 -8.42039,-18.82572 -18.82573,-18.82572" id="path5884" inkscape:connector-curvature="0"/>
  </g>
</svg>