<svg xmlns="http://www.w3.org/2000/svg" width="841.889" height="595.281" viewBox="0 0 841.889 595.281"><path fill="#E6E6E6" d="M274.878 231.927c4.515 4.519 4.367 8.775-.7 13.835l-9.516 9.533c-5.102 5.074-9.325 5.211-13.849.676l-10.909-10.904c-4.522-4.505-4.398-8.763.678-13.835l9.521-9.535c5.088-5.068 9.328-5.2 13.865-.685l10.91 10.915zm45.853-67.677c-4.534-4.521-8.773-4.39-13.854.693l-9.521 9.534c-5.066 5.059-5.212 9.315-.67 13.837l10.878 10.902c4.523 4.535 8.768 4.396 13.858-.688l9.517-9.529c5.069-5.052 5.206-9.332.692-13.836l-10.9-10.913zm166.672 157.027L338.13 470.528c-15.017 15.034-32.26 15.034-47.273 0L141.615 321.277c-15.037-15.021-15.037-32.255 0-47.285l149.24-149.238c15.036-15.034 32.258-15.034 47.273 0l149.263 149.238c15.037 15.018 15.037 32.253.012 47.285m-245.648-30.339l-24.067-24.054c-11.243-11.245-24.724-11.459-37.347 1.152l-8.996 8.967c-12.603 12.619-12.404 26.128-1.152 37.368l24.046 24.088c4.215 4.184 8.915 3.553 12.146.354 3.217-3.243 3.769-7.919-.429-12.08l-23.837-23.875c-4.535-4.505-4.39-8.764.689-13.837l9.519-9.52c5.08-5.085 9.33-5.235 13.856-.694l23.848 23.84c4.171 4.204 8.85 3.647 12.066.424 3.23-3.227 3.855-7.935-.342-12.133m45.045-70.544l-11.335-11.29c-11.23-11.245-24.737-11.465-37.339 1.163l-8.986 8.994c-12.611 12.591-12.413 26.082-1.181 37.34l36.344 36.315c4.189 4.177 8.914 3.564 12.143.341 3.22-3.218 3.771-7.863-.418-12.067l-8.356-8.333c2.275-.48 5.079-2.216 8.357-5.503l9.596-9.607c12.628-12.604 12.41-26.089 1.175-37.353m56.762-56.757l-11.335-11.303c-11.224-11.253-24.734-11.445-37.339 1.166l-8.985 8.991c-12.61 12.604-12.394 26.099-1.17 37.342l11.316 11.303c11.236 11.278 24.757 11.469 37.359-1.146l8.964-8.986c12.623-12.618 12.425-26.121 1.19-37.367"/><path fill="#1D9D27" d="M241.762 290.929c4.182 4.205 3.576 8.913.334 12.146-3.225 3.222-7.888 3.781-12.065-.428l-23.848-23.84c-4.515-4.54-8.79-4.391-13.846.694l-9.529 9.522c-5.08 5.07-5.215 9.317-.698 13.836l23.846 23.873c4.196 4.16 3.646 8.836.437 12.079-3.237 3.198-7.938 3.829-12.152-.367l-24.053-24.073c-11.246-11.24-11.442-24.748 1.171-37.36l8.984-8.975c12.623-12.611 26.11-12.407 37.347-1.152l24.072 24.045zm101.793-127.292c11.23 11.25 11.452 24.749-1.17 37.367l-8.989 8.987c-12.603 12.617-26.109 12.414-37.335 1.146l-11.34-11.303c-11.223-11.244-11.421-24.734 1.192-37.343l8.975-8.996c12.604-12.606 26.126-12.414 37.347-1.16l11.32 11.302zm-11.923 11.527l-10.901-10.914c-4.534-4.517-8.785-4.39-13.842.704l-9.532 9.523c-5.066 5.059-5.212 9.321-.681 13.837l10.9 10.902c4.522 4.535 8.754 4.396 13.847-.685l9.528-9.535c5.045-5.062 5.204-9.329.681-13.832m-44.832 45.23c11.235 11.254 11.453 24.749-1.177 37.352l-9.583 9.608c-3.305 3.287-6.103 5.021-8.37 5.502l8.357 8.334c4.183 4.204 3.648 8.851.419 12.073-3.229 3.219-7.954 3.829-12.149-.347l-36.338-36.315c-11.231-11.255-11.431-24.748 1.191-37.354l8.977-8.979c12.602-12.621 26.106-12.417 37.339-1.163l11.334 11.289zm-11.929 11.533l-10.901-10.91c-4.524-4.521-8.777-4.4-13.865.683l-9.53 9.531c-5.062 5.062-5.186 9.33-.67 13.836l10.898 10.915c4.534 4.528 8.758 4.388 13.845-.687l9.529-9.529c5.068-5.052 5.206-9.321.694-13.839"/><path fill="#60B146" d="M336.996 246.092c21.823-28.857 42.174-56.649 77.006-81.849 32.869-23.786 64.801-30.896 72.004 16.607 5.796 38.235 16.11 173.812-1.992 227.44-15.533 46.025-25.301 55.326-47.43 44.958-22.061-10.329-41.17-28.882-62.789-56.131-5.75-7.247-.382-22.628-5.19-29.466-2.304-3.271-27.233-13.9-29.253-16.961-24.888-37.714-34.353-62.288-2.356-104.598zm324.129-1.117c-21.826-28.858-38.977-52.934-77.368-77.61-34.132-21.938-67.377-34.164-74.58 13.338-5.794 38.236-16.113 173.812 1.989 227.44 15.536 46.026 25.304 55.329 47.431 44.961 22.062-10.333 41.172-28.884 62.791-56.134 5.749-7.246.382-22.628 5.189-29.466 2.305-3.27 27.232-13.899 29.252-16.958 24.888-37.715 37.29-63.259 5.296-105.571z"/><path fill="#5ECE18" d="M338.004 244.87c21.827-28.858 42.174-56.65 77.008-81.85 32.87-23.785 64.801-30.896 72.002 16.606 5.798 38.236 16.114 173.812-1.99 227.441-15.532 46.025-25.3 55.328-47.43 44.961-22.061-10.332-41.169-28.885-62.788-56.134-5.753-7.249-.385-22.628-5.192-29.468-2.302-3.269-27.234-13.899-29.252-16.958-24.887-37.713-34.352-62.288-2.358-104.598z"/><path fill="#5ECE18" d="M659.588 243.9c-21.826-28.858-38.977-52.935-77.368-77.611-34.133-21.938-67.377-34.164-74.58 13.339-5.794 38.236-16.112 173.812 1.99 227.441 15.536 46.025 25.302 55.328 47.433 44.96 22.061-10.332 41.169-28.884 62.788-56.133 5.748-7.249.382-22.629 5.188-29.468 2.305-3.27 27.233-13.9 29.254-16.959 24.887-37.714 37.292-63.257 5.295-105.569z"/><path fill="#2F8943" d="M383.883 271.865c16.635-21.616 34.504-38.321 61.464-55.856 25.356-16.485 41.137-5.188 47.263 46.142 3.5 29.216 1.448 106.751-7.438 138.655-9.876 35.475-18.164 35.663-38.337 25.553-18.826-9.417-28.765-22.276-42.41-43.054-2.728-4.146-.354-13.096-2.983-17.396-.395-.646-13.141-6.952-13.527-7.602-17.216-28.609-27.872-55.471-4.032-86.442zm228.433-2.504c-16.637-21.616-35.784-39.004-62.745-56.54-25.355-16.485-38.555-.362-44.687 50.967-3.499 29.216-3.692 104.739 5.197 136.644 9.875 35.478 18.165 35.666 38.334 25.556 18.826-9.419 28.765-22.276 42.413-43.054 2.726-4.148.352-13.1 2.981-17.398.396-.643 13.14-6.949 13.528-7.599 17.216-28.613 28.819-57.605 4.979-88.576z"/><path fill="#15A521" d="M385.698 270.169c16.636-21.615 34.505-38.319 61.463-55.855 25.358-16.485 41.137-5.188 47.263 46.141 3.503 29.217 1.447 106.752-7.438 138.653-9.878 35.479-18.166 35.666-38.337 25.556-18.826-9.417-28.766-22.275-42.412-43.054-2.725-4.146-.353-13.096-2.98-17.396-.396-.646-13.14-6.952-13.528-7.603-17.214-28.609-27.87-55.472-4.031-86.442zm224.935-2.131c-16.638-21.615-35.785-39.004-62.747-56.54-25.354-16.484-38.556-.361-44.687 50.967-3.498 29.218-3.69 104.74 5.198 136.643 9.876 35.479 18.166 35.666 38.335 25.556 18.824-9.417 28.764-22.275 42.413-43.054 2.725-4.146.351-13.096 2.981-17.396.396-.646 13.14-6.952 13.527-7.603 17.216-28.609 28.82-57.601 4.98-88.573z"/><path fill="#BFD330" d="M417.783 315.02c11.445-12.042 23.679-21.315 42.043-30.991 17.293-9.083 26.302-1.528 29.993 27.364 2.068 16.427 1.493 58.877-4.798 76.753-7.006 19.876-12.611 19.938-26.151 14.121-13.597-5.848-21.079-14.444-30.667-27.352-1.076-1.447-1.415-7.685-2.468-9.158-2.903-4.072-9.477-6.447-11.712-10.71-6.803-13.008-8.858-26.737 3.76-40.027zm159.328 0c-11.446-12.042-23.68-21.315-42.043-30.991-17.29-9.083-26.303-1.528-29.992 27.364-2.07 16.427-1.499 58.877 4.803 76.753 7.002 19.876 12.605 19.938 26.146 14.121 13.599-5.848 21.08-14.444 30.669-27.352 1.075-1.447 1.414-7.685 2.464-9.158 2.904-4.072 9.479-6.447 11.714-10.71 6.801-13.008 8.86-26.737-3.761-40.027z"/><path fill="#FFF00A" d="M574.992 312.902c-11.445-12.045-23.682-21.318-42.041-30.993-17.292-9.084-26.305-1.529-29.994 27.363-2.07 16.428-1.495 58.88 4.801 76.753 7.004 19.876 12.608 19.938 26.148 14.121 13.598-5.848 21.079-14.444 30.669-27.349 1.074-1.45 1.413-7.688 2.463-9.161 2.907-4.072 9.48-6.447 11.716-10.71 6.802-13.006 8.859-26.737-3.762-40.024zm-154.603 0c11.443-12.045 23.678-21.318 42.043-30.993 17.295-9.084 26.301-1.529 29.992 27.363 2.07 16.428 1.494 58.88-4.798 76.753-7.006 19.876-12.61 19.938-26.151 14.121-13.594-5.848-21.079-14.444-30.666-27.349-1.077-1.45-1.414-7.688-2.468-9.161-2.905-4.072-9.477-6.447-11.712-10.71-6.805-13.006-8.858-26.737 3.76-40.024z"/><path d="M684.364 326.813a951.484 951.484 0 0 1-.229-8.674 428.46 428.46 0 0 1-.05-6.798c-.022-9.263-.049-18.843-2.21-28.107-1.888-8.052-5.517-14.33-10.494-18.154-4.183-3.215-9.269-4.831-15.115-4.806a35.472 35.472 0 0 0-4.225.282c-.969.123-1.961.274-2.966.455-2.21-.892-4.841-1.333-7.869-1.319a36.55 36.55 0 0 0-6.238.586l-.446.087-.432.139c-2.11.68-4.025 1.959-5.532 3.584-2.658-1.965-6.27-2.95-10.791-2.932-3.2.014-5.925.526-6.224.583l-.479.095-.462.152c-3.412 1.128-6.319 3.835-7.774 7.027-1.214-3.124-3.854-5.731-7.095-6.831l-.826-.28-10.266-1.037a9.613 9.613 0 0 0-2.115-.229c-2.607.012-5.064 1.137-6.738 3.09a8.953 8.953 0 0 0-1.742 3.176c-5.021-4.803-11.307-7.304-18.467-7.272-.553.002-1.114.021-1.713.055-4.363.268-8.561 1.635-12.483 4.072-2.763 1.724-5.257 3.95-7.472 6.65-6.043-6.125-14.128-8.62-21.771-8.587a146.468 146.468 0 0 1-2.127.026c-6.562.027-17.924-.356-18.035-.36l-.35-.012-.348.021c-3.941.225-8.16 1.771-10.821 4.684-5.669-3.35-11.747-4.175-12.51-4.266-1.691-.2-4.125-.313-6.503-.305-1.014.005-2.466.035-3.753.152l-16.204.862c-3.701.287-6.982 2.35-9.068 5.328-.155-.182-.308-.368-.467-.544-3.02-3.286-8.522-7.196-17.591-7.156-9.247.04-20.791 3.001-26.113 8.616-1.424-1.219-2.901-2.062-3.901-2.633-4.715-2.676-38.448-14.497-49.527-18.351-1.152-.548-3.034-1.233-5.225-1.226-2.646.013-5.095 1.042-6.898 2.899-1.383 1.425-3.023 4.018-2.993 8.279l.005.543 2.438 17.06a12.565 12.565 0 0 0 2.271 7.27c2.412 3.479 6.327 5.684 11.636 6.545 3.127.511 6.275.997 8.981 1.406-5.358 7.621-15.26 21.425-22.252 31.121l-.23.317-.198.343c-.812 1.402-3.479 6.327-3.644 10.813a97.688 97.688 0 0 0-.006 6.243l.008.256.024.251c.572 5.84 5.044 11.748 12.479 11.744 4.078-.002 37.544.01 40.441.01a14 14 0 0 0 .438.006c4.402-.021 9.118-2.483 11.191-7.731 4.097 2.324 9.979 3.903 18.413 3.865 3.896-.016 7.188-.378 8.596-.533l.426-.045c.755-.055 2.293-.227 4.59-.515 1.89.681 4.072 1.017 6.524 1.009 3.557-.017 6.765-.754 7.118-.839l.455-.105.437-.16c.39-.146.77-.316 1.142-.504a11.732 11.732 0 0 0 4.829 2.091l.692.126 15.347-.016c3.78-.017 6.802-1.171 8.979-3.431 3.178-3.298 3.112-7.541 3.092-8.935l-.002-.11-.678-15.905c.086-.002.168-.002.254-.002 2.043-.01 4.193-.072 5.761-.168.669-.041 3.024-.23 6.004-.941.264 6.956.81 16.983.95 19.54-.257 7.694 4.533 11.39 9.185 12.278l.706.135 13.936.021c.224.008.447.013.67.011 8.235-.036 12.047-5.56 12.134-10.735l.521-16.422c2.145-.046 4.688-.179 7.594-.385l.817-.061c1.452-.105 2.955-.217 4.468-.411.039.153.074.304.116.464 1.433 5.362 3.546 10.131 6.248 14.115 2.918 4.374 6.644 7.875 11.056 10.391 4.524 2.6 9.76 3.963 15.49 4.053a37.627 37.627 0 0 0 6.522-.402 44.825 44.825 0 0 0 5.67-1.162c1.871-.496 3.518-1.062 5.021-1.729l.83-.349a10.85 10.85 0 0 0 5.948 2.55l.4.042 20.723-.107c.118.002.236.007.354.005a9.334 9.334 0 0 0 4.155-1.031c1.374.587 3.08.942 5.202.936l9.604-.041c2.502-.011 4.783-.729 6.636-1.953 1.577 1.203 3.508 1.907 5.57 1.899l3.14-.011c2.618-.014 6.344-.035 8.425-.099 2.807-.062 5.831-1.513 7.5-4.559 1.612 2.76 4.783 4.562 8.387 4.549l11.777-.053c4.654-.021 8.674-3.324 9.367-7.688.342-2.11.266-6.061-.025-15.891z"/><path fill="#FFF" d="M325.294 256.295l2.472 17.284s-.919 5.035 7.338 6.377c8.26 1.349 16.56 2.518 16.56 2.518s3.972 1.56 1.351 5.729c-2.625 4.164-26.143 36.778-26.143 36.778s-2.469 4.252-2.569 7.091c-.106 2.837-.009 5.665-.009 5.665s.455 4.619 4.742 4.619c4.263-.002 40.646.009 40.646.009s4.571.417 4.741-5.538c.16-5.966.192-7.065.192-7.065s.699-3.844-4.584-4.808c-5.28-.969-11.948-.58-11.948-.58s-5.148.383-1.574-6.575c3.575-6.963 18.46-28.761 18.46-28.761s3.929-7.413 6.236-10.352c2.306-2.938 1.722-4.438-2.823-7.025-4.544-2.583-48.748-17.943-48.748-17.943s-4.377-2.54-4.34 2.577zm209.605 51.097c2.159-6.813 2.188-7.66 1.094-16.125-.949-7.392-2.98-9.257-2.188-11.226.824-2.036.955-1.836 2.007-3.479 2.115-3.255 4.602-5.767 7.452-7.544 2.837-1.764 5.807-2.732 8.888-2.92 7.241-.416 13.001 2.385 17.284 8.45 4.269 6.116 6.6 15.508 6.904 28.122.037.965 1.092 6.99-2.854 6.96-3.898-.005-22.178 1.227-22.178 1.227-1.972.025-3.312 1.405-2.972 3.051 0 0-.072 6.107 2.619 9.265 2.696 3.19 3.491 3.889 8.425 3.915 2.924-.014 6.312-2.176 8.739-2.632 10.25-1.947 9.405 11.729 4.19 14.906l-1.154.481c-1.174.526-2.491.976-3.985 1.366a36.878 36.878 0 0 1-4.772.979 29.494 29.494 0 0 1-5.24.323c-4.522-.068-8.477-1.093-11.851-3.031-3.381-1.928-6.192-4.565-8.444-7.944-2.256-3.323-3.981-7.25-5.182-11.745a61.526 61.526 0 0 1-1.001-4.507c-.598-3.213 2.073-1.072 4.219-7.892zm21.412-13.417c1.21-.031 2.131-.899 2.044-1.94 0 0-.065-.846-.394-2.097-.315-1.257-.767-2.327-1.328-3.23-.573-.886-1.245-1.605-2.031-2.089-.793-.502-1.735-.729-2.827-.684-1.1.048-1.268.229-2.071.818-.82.62-1.5 1.411-2.037 2.372-.551.959-.943 2.04-1.221 3.256-.27 1.232-.457 2.462-.511 3.743l10.376-.149zm45.28 31.745c1.312.159 2.113.724 2.715 2.38.612 1.64.36 8.874.054 10.444-.312 1.585-.786 2.915-2.102 2.808l-20.526.104c-1.28-.129-2.467-1.127-2.607-2.246l.09-70.722c-.146-1.105.694-1.707 1.891-1.296l9.992 1.012c1.206.409 2.313 1.672 2.476 2.79l-1.223 52.839c.164 1.133 1.366 2.21 2.667 2.365l6.573-.478zm21.909-44.314c-.037-.637-.214-10.785-.908-11.648-2.711-3.487-11.771-1.729-11.771-1.729-1.644.542-3.145 2.166-3.383 3.602 0 0 .183 9.667.202 10.225.01.56.809 1.605 1.822 1.837 1.585.337 10.281.376 12.349-.47.868-.373 1.72-1.186 1.689-1.817zm-15.596 11.374l.903 46.229c.091 1.714.404 2.264 2.965 2.253l9.604-.043c1.631-.007 3.54-.878 3.611-2.544 0 0-.455-45.417-.438-46.958.004-1.5-1.023-3.888-2.831-3.043-2.841 1.344-10.641 1.257-12.501 1.257-1.325 0-1.325 2.413-1.313 2.849zm22.978-19.259l.015-.003c0-.012-.006-.025-.015.003z"/><path fill="#FFF" d="M674.185 316.798c-.195-11.005.417-22.652-2.048-33.21-1.272-5.424-3.646-10.623-7.62-13.676-4.086-3.143-9.005-3.571-13.69-2.987a54.138 54.138 0 0 0-5.199.932c-3.104-2.897-11.379-1.289-11.379-1.289-1.631.524-3.149 2.163-3.381 3.576l.064 3.356c-.021.009-.024.009-.035.02a.214.214 0 0 1-.007.07 4.76 4.76 0 0 0 .021.567c.021.724.021 1.526.033 2.314.104 6.887.247 13.86.353 20.795.218 14.681.224 40.075.705 42.411.148.784.8 1.492 1.579 1.49 2.537-.012 8.574-.022 11.42-.104 1.148-.029 1.072-1.165 1.187-1.584.664-2.515-1.471-33.433-1.902-51.698-.023-1.535-.305-1.649.95-1.97 2.866-.792 6.393-1.805 9.18-.286 5.158 2.771 4.686 13.458 4.754 18.896.192 10.775-.111 34.16.16 35.866.046.263.768.763 1.705.759 3.021-.014 8.788-.037 11.778-.051.904-.007 1.669-.646 1.73-1.044.363-2.218-.186-14.327-.358-23.153zm-191.11-24.684c-.229-2.289-.251-2.41-.251-2.41-.354-2.476-1.079-6.519-1.627-8.984 0 0-.725-4.783-5.348-8.226-4.713-3.454-10.98-4.209-10.98-4.209-2.336-.278-6.568-.339-8.792-.118l-16.178.859c-2.213.172-4.146 2.267-4.237 4.637l-4.014 60.439c-.102 2.379 1.038 4.489 3.383 4.921l14.613-.013c3.918-.018 4.37-1.936 4.335-4.335l-.896-21.021c-.021-2.412 1.84-3.186 4.146-3.101l1.121.035c2.308.085 6.01.021 8.265-.116 0 0 14.342-.884 16.053-9.66.603-3.031.745-5.414.407-8.698zm-20.412 1.296c-.198.463-1.026 1.358-1.376 1.65-.336.304-1.635.811-2.078.974-.435.164-.844.188-1.312.266-.472.058-2.287.174-2.758.153-.5-.011-1.785-.119-2.366-.211-.465-.093-.448.077-.424-1.063l.042-7.306c.019-1.125-.228-2.18.71-2.345l4.313-.015c.966-.054 1.509.081 2.477.161 0 0 .718.278 1.43.623.703.343 1.566 1.304 1.978 3.117.434 1.913-.434 3.516-.636 3.996z"/><path fill="#FFF" d="M533.401 293.255c-1.51-23.494-18.388-25.115-23.789-25.002-6.307.125-20.075-.344-20.075-.344-2.348.133-6.023 1.253-6.188 3.569 0 0 .521 2.296 1.183 3.983 1.272 3.241.903 7.291.946 17.154.077 17.854-4.704 14.521-4.758 18.958-.062 4.445 1.104 25.359 1.104 25.359-.146 2.306.354 4.064 2.837 4.536l13.358.023c2.455.108 4.874-.662 4.878-2.993l.646-20.26c.017-2.347.261-4.153 2.664-4.036 0 0 2.214.479 12.014-.226 9.71-.712 16.473-.598 15.18-20.721zm-21.125 2.089c-.199.445-.218.819-1.044 1.7-.542.563-1.92 1.282-2.391 1.438-.459.148-1.874.544-2.368.604-.51.061-2.312.237-2.828.206-.515-.015-2.612-.225-3.154-.244-.539-.03-.557-1.006-.528-2.108l.253-6.603c.063-1.095-.188-2.117.801-2.269l3.893-.195c1.012-.039 2.233-.024 3.244.085 0 0 .771.076 1.502.444 1.301.656 2.324 2.061 2.479 3.215.139.984.351 3.269.141 3.727zm-100.059-28.666c-9.791.042-18.604 3.534-20.92 6.624-1.516 2.028-2.525 8.551-1.743 12.595.313 1.608.836 1.825 2.383 1.704 1.568-.119 1.913-1.394 4.679-2.428 2.772-1.03 8.8-2.688 11.718-2.435 1.797.155 4.378 1.584 5.215 5.383.415 1.875.384 2.949.384 2.949s-.27 2.771-2.641 2.742c-2.381-.036-18.442 1.234-24.968 8.608-6.199 6.994-6.94 12.491-6.649 24.557.371 15.05 26.489 11.086 28.295 10.966.811-.053 3.579-.391 6.455-.764 3.152 2.368 10.594.604 10.594.604 1.521-.562 2.893-2.172 3.061-3.509l-.521-8.751c.477-9.695 1.539-30.564 1.567-32.236.031-1.816 3.135-26.696-16.909-26.609zm.083 51.93c-.103 1.103.231 2.26-1.884 2.409-2.123.144-10.731 2.438-10.248-4.848.388-5.886 6.959-6.561 8.142-6.631 1.195-.08 4.833-.829 4.731.927-.083 1.087-.656 7.038-.741 8.143z"/></svg>